<!-- source-sha256: 0982293be649e6f45131c7ffb8effa42acf97e4221db810c071d31786c065df9 -->
<svg id="my-svg" width="100%" xmlns="http://www.w3.org/2000/svg" xmlns:xlink="http://www.w3.org/1999/xlink" class="statediagram" style="max-width: 1011.76px; background-color: transparent;" viewBox="0 0 1011.7578125 1234" role="graphics-document document" aria-roledescription="stateDiagram" aria-describedby="chart-desc-my-svg" aria-labelledby="chart-title-my-svg"><title id="chart-title-my-svg">Credit application state machine</title><desc id="chart-desc-my-svg">Conceptual credit application states from drafting and submission through assessment, approval, offer acceptance, booking, and exception end states.</desc><style>#my-svg{font-size:16px;fill:#0F172A;}@keyframes edge-animation-frame{from{stroke-dashoffset:0;}}@keyframes dash{to{stroke-dashoffset:0;}}#my-svg .edge-animation-slow{stroke-dasharray:9,5!important;stroke-dashoffset:900;animation:dash 50s linear infinite;stroke-linecap:round;}#my-svg .edge-animation-fast{stroke-dasharray:9,5!important;stroke-dashoffset:900;animation:dash 20s linear infinite;stroke-linecap:round;}#my-svg .error-icon{fill:#ECFDF5;}#my-svg .error-text{fill:#13020a;stroke:#13020a;}#my-svg .edge-thickness-normal{stroke-width:1px;}#my-svg .edge-thickness-thick{stroke-width:3.5px;}#my-svg .edge-pattern-solid{stroke-dasharray:0;}#my-svg .edge-thickness-invisible{stroke-width:0;fill:none;}#my-svg .edge-pattern-dashed{stroke-dasharray:3;}#my-svg .edge-pattern-dotted{stroke-dasharray:2;}#my-svg .marker{fill:#475569;stroke:#475569;}#my-svg .marker.cross{stroke:#475569;}#my-svg svg{font-size:16px;}#my-svg p{margin:0;}#my-svg defs [id$="-barbEnd"]{fill:#475569;stroke:#475569;}#my-svg g.stateGroup text{fill:#2563EB;stroke:none;font-size:10px;}#my-svg g.stateGroup text{fill:#0F172A;stroke:none;font-size:10px;}#my-svg g.stateGroup .state-title{font-weight:bolder;fill:#0F172A;}#my-svg g.stateGroup rect{fill:#E8F1FB;stroke:#2563EB;}#my-svg g.stateGroup line{stroke:#475569;stroke-width:1;}#my-svg .transition{stroke:#475569;stroke-width:1;fill:none;}#my-svg .stateGroup .composit{fill:#f4f4f4;border-bottom:1px;}#my-svg .stateGroup .alt-composit{fill:#e0e0e0;border-bottom:1px;}#my-svg .state-note{stroke:hsl(52.6829268293, 60%, 73.9215686275%);fill:#fff5ad;}#my-svg .state-note text{fill:#333;stroke:none;font-size:10px;}#my-svg .stateLabel .box{stroke:none;stroke-width:0;fill:#E8F1FB;opacity:0.5;}#my-svg .edgeLabel .label rect{fill:#E8F1FB;opacity:0.5;}#my-svg .edgeLabel{background-color:#F8FAFC;text-align:center;}#my-svg .edgeLabel p{background-color:#F8FAFC;}#my-svg .edgeLabel rect{opacity:0.5;background-color:#F8FAFC;fill:#F8FAFC;}#my-svg .edgeLabel .label text{fill:#0F172A;}#my-svg .label div .edgeLabel{color:#0F172A;}#my-svg .stateLabel text{fill:#0F172A;font-size:10px;font-weight:bold;}#my-svg .node circle.state-start{fill:#475569;stroke:#475569;}#my-svg .node .fork-join{fill:#475569;stroke:#475569;}#my-svg .node circle.state-end{fill:#2563EB;stroke:#f4f4f4;stroke-width:1.5;}#my-svg .end-state-inner{fill:#f4f4f4;stroke-width:1.5;}#my-svg .node rect{fill:#E8F1FB;stroke:#2563EB;stroke-width:1px;}#my-svg .node polygon{fill:#E8F1FB;stroke:#2563EB;stroke-width:1px;}#my-svg [id$="-barbEnd"]{fill:#475569;}#my-svg .statediagram-cluster rect{fill:#E8F1FB;stroke:#2563EB;stroke-width:1px;}#my-svg .cluster-label,#my-svg .nodeLabel{color:#0F172A;}#my-svg .statediagram-cluster rect.outer{rx:5px;ry:5px;}#my-svg .statediagram-state .divider{stroke:#2563EB;}#my-svg .statediagram-state .title-state{rx:5px;ry:5px;}#my-svg .statediagram-cluster.statediagram-cluster .inner{fill:#f4f4f4;}#my-svg .statediagram-cluster.statediagram-cluster-alt .inner{fill:#ECFDF5;}#my-svg .statediagram-cluster .inner{rx:0;ry:0;}#my-svg .statediagram-state rect.basic{rx:5px;ry:5px;}#my-svg .statediagram-state rect.divider{stroke-dasharray:10,10;fill:#ECFDF5;}#my-svg .note-edge{stroke-dasharray:5;}#my-svg .statediagram-note rect{fill:#fff5ad;stroke:hsl(52.6829268293, 60%, 73.9215686275%);stroke-width:1px;rx:0;ry:0;}#my-svg .statediagram-note rect{fill:#fff5ad;stroke:hsl(52.6829268293, 60%, 73.9215686275%);stroke-width:1px;rx:0;ry:0;}#my-svg .statediagram-note text{fill:#333;}#my-svg .statediagram-note .nodeLabel{color:#333;}#my-svg .statediagram .edgeLabel{color:red;}#my-svg [id$="-dependencyStart"],#my-svg [id$="-dependencyEnd"]{fill:#475569;stroke:#475569;stroke-width:1;}#my-svg .statediagramTitleText{text-anchor:middle;font-size:18px;fill:#0F172A;}#my-svg [data-look="neo"].statediagram-cluster rect{fill:#E8F1FB;stroke:url(#my-svg-gradient);stroke-width:1;}#my-svg [data-look="neo"].statediagram-cluster rect.outer{rx:5px;ry:5px;filter:drop-shadow( 1px 2px 2px rgba(185,185,185,1));}#my-svg .node .neo-node{stroke:#2563EB;}#my-svg [data-look="neo"].node rect,#my-svg [data-look="neo"].cluster rect,#my-svg [data-look="neo"].node polygon{stroke:url(#my-svg-gradient);filter:drop-shadow( 1px 2px 2px rgba(185,185,185,1));}#my-svg [data-look="neo"].swimlane.cluster rect{filter:none;}#my-svg [data-look="neo"].node path{stroke:url(#my-svg-gradient);stroke-width:1px;}#my-svg [data-look="neo"].node .outer-path{filter:drop-shadow( 1px 2px 2px rgba(185,185,185,1));}#my-svg [data-look="neo"].node .neo-line path{stroke:#2563EB;filter:none;}#my-svg [data-look="neo"].node circle{stroke:url(#my-svg-gradient);filter:drop-shadow( 1px 2px 2px rgba(185,185,185,1));}#my-svg [data-look="neo"].node circle .state-start{fill:#000000;}#my-svg [data-look="neo"].icon-shape .icon{fill:url(#my-svg-gradient);filter:drop-shadow( 1px 2px 2px rgba(185,185,185,1));}#my-svg [data-look="neo"].icon-shape .icon-neo path{stroke:url(#my-svg-gradient);filter:drop-shadow( 1px 2px 2px rgba(185,185,185,1));}#my-svg :root{--mermaid-font-family:"trebuchet ms",verdana,arial,sans-serif;}#my-svg .active&gt;*{fill:rgb(232, 241, 251)!important;stroke:rgb(37, 99, 235)!important;color:rgb(15, 23, 42)!important;}#my-svg .active span{fill:rgb(232, 241, 251)!important;stroke:rgb(37, 99, 235)!important;color:rgb(15, 23, 42)!important;}#my-svg .active tspan{fill:rgb(15, 23, 42)!important;}#my-svg .control&gt;*{fill:rgb(254, 243, 199)!important;stroke:rgb(217, 119, 6)!important;color:rgb(120, 53, 15)!important;}#my-svg .control span{fill:rgb(254, 243, 199)!important;stroke:rgb(217, 119, 6)!important;color:rgb(120, 53, 15)!important;}#my-svg .control tspan{fill:rgb(120, 53, 15)!important;}#my-svg .success&gt;*{fill:rgb(220, 252, 231)!important;stroke:rgb(22, 163, 74)!important;color:rgb(20, 83, 45)!important;}#my-svg .success span{fill:rgb(220, 252, 231)!important;stroke:rgb(22, 163, 74)!important;color:rgb(20, 83, 45)!important;}#my-svg .success tspan{fill:rgb(20, 83, 45)!important;}#my-svg .exception&gt;*{fill:rgb(254, 226, 226)!important;stroke:rgb(220, 38, 38)!important;color:rgb(127, 29, 29)!important;}#my-svg .exception span{fill:rgb(254, 226, 226)!important;stroke:rgb(220, 38, 38)!important;color:rgb(127, 29, 29)!important;}#my-svg .exception tspan{fill:rgb(127, 29, 29)!important;}</style><g><defs><marker id="my-svg_stateDiagram-barbEnd" refX="19" refY="7" markerWidth="20" markerHeight="14" markerUnits="userSpaceOnUse" orient="auto"><path d="M 19,7 L9,13 L14,7 L9,1 Z"/></marker></defs><g class="root"><g class="clusters"/><g class="edgePaths"><path d="M889.504,22L889.504,26.167C889.504,30.333,889.504,38.667,889.504,47C889.504,55.333,889.504,63.667,889.504,67.833L889.504,72" id="my-svg-edge0" class="edge-thickness-normal edge-pattern-solid transition" style="fill:none;;;fill:none" data-edge="true" data-et="edge" data-id="edge0" data-points="W3sieCI6ODg5LjUwMzkwNjI1LCJ5IjoyMn0seyJ4Ijo4ODkuNTAzOTA2MjUsInkiOjQ3fSx7IngiOjg4OS41MDM5MDYyNSwieSI6NzJ9XQ==" data-look="classic" marker-end="url(#my-svg_stateDiagram-barbEnd)"/><path d="M874.895,112L870.39,118.167C865.885,124.333,856.876,136.667,816.74,150.689C776.604,164.71,705.341,180.421,669.71,188.276L634.078,196.131" id="my-svg-edge1" class="edge-thickness-normal edge-pattern-solid transition" style="fill:none;;;fill:none" data-edge="true" data-et="edge" data-id="edge1" data-points="W3sieCI6ODc0Ljg5NDUzMTI1LCJ5IjoxMTJ9LHsieCI6ODQ3Ljg2NzE4NzUsInkiOjE0OX0seyJ4Ijo2MzQuMDc4MTI1LCJ5IjoxOTYuMTMxMTM3NjM0MDgzN31d" data-look="classic" marker-end="url(#my-svg_stateDiagram-barbEnd)"/><path d="M904.113,112L908.618,118.167C913.122,124.333,922.132,136.667,926.636,152.333C931.141,168,931.141,187,931.141,206C931.141,225,931.141,244,931.141,263C931.141,282,931.141,301,931.141,320C931.141,339,931.141,358,931.141,377C931.141,396,931.141,415,931.141,434C931.141,453,931.141,472,931.141,491C931.141,510,931.141,529,931.141,548C931.141,567,931.141,586,931.141,605C931.141,624,931.141,643,931.141,662C931.141,681,931.141,700,931.141,719C931.141,738,931.141,757,931.141,776C931.141,795,931.141,814,931.141,833C931.141,852,931.141,871,931.141,890C931.141,909,931.141,928,931.141,947C931.141,966,931.141,985,931.141,1006C931.141,1027,931.141,1050,864.054,1071.806C796.967,1093.612,662.794,1114.225,595.708,1124.531L528.621,1134.837" id="my-svg-edge2" class="edge-thickness-normal edge-pattern-solid transition" style="fill:none;;;fill:none" data-edge="true" data-et="edge" data-id="edge2" data-points="W3sieCI6OTA0LjExMzI4MTI1LCJ5IjoxMTJ9LHsieCI6OTMxLjE0MDYyNSwieSI6MTQ5fSx7IngiOjkzMS4xNDA2MjUsInkiOjIwNn0seyJ4Ijo5MzEuMTQwNjI1LCJ5IjoyNjN9LHsieCI6OTMxLjE0MDYyNSwieSI6MzIwfSx7IngiOjkzMS4xNDA2MjUsInkiOjM3N30seyJ4Ijo5MzEuMTQwNjI1LCJ5Ijo0MzR9LHsieCI6OTMxLjE0MDYyNSwieSI6NDkxfSx7IngiOjkzMS4xNDA2MjUsInkiOjU0OH0seyJ4Ijo5MzEuMTQwNjI1LCJ5Ijo2MDV9LHsieCI6OTMxLjE0MDYyNSwieSI6NjYyfSx7IngiOjkzMS4xNDA2MjUsInkiOjcxOX0seyJ4Ijo5MzEuMTQwNjI1LCJ5Ijo3NzZ9LHsieCI6OTMxLjE0MDYyNSwieSI6ODMzfSx7IngiOjkzMS4xNDA2MjUsInkiOjg5MH0seyJ4Ijo5MzEuMTQwNjI1LCJ5Ijo5NDd9LHsieCI6OTMxLjE0MDYyNSwieSI6MTAwNH0seyJ4Ijo5MzEuMTQwNjI1LCJ5IjoxMDczfSx7IngiOjUyOC42MjEwOTM3NSwieSI6MTEzNC44MzcyMTY1ODM2MDk1fV0=" data-look="classic" marker-end="url(#my-svg_stateDiagram-barbEnd)"/><path d="M589.313,226L589.313,232.167C589.313,238.333,589.313,250.667,582.02,263C574.728,275.333,560.143,287.667,552.85,293.833L545.558,300" id="my-svg-edge3" class="edge-thickness-normal edge-pattern-solid transition" style="fill:none;;;fill:none" data-edge="true" data-et="edge" data-id="edge3" data-points="W3sieCI6NTg5LjMxMjUsInkiOjIyNn0seyJ4Ijo1ODkuMzEyNSwieSI6MjYzfSx7IngiOjU0NS41NTc1NjU3ODk0NzM2LCJ5IjozMDB9XQ==" data-look="classic" marker-end="url(#my-svg_stateDiagram-barbEnd)"/><path d="M468.273,301.139L450.198,294.783C432.122,288.426,395.971,275.713,377.896,259.857C359.82,244,359.82,225,359.82,206C359.82,187,359.82,168,371.079,152.333C382.338,136.667,404.855,124.333,416.114,118.167L427.372,112" id="my-svg-edge4" class="edge-thickness-normal edge-pattern-solid transition" style="fill:none;;;fill:none" data-edge="true" data-et="edge" data-id="edge4" data-points="W3sieCI6NDY4LjI3MzQzNzUsInkiOjMwMS4xMzkyMDA4NDgzMTU0fSx7IngiOjM1OS44MjAzMTI1LCJ5IjoyNjN9LHsieCI6MzU5LjgyMDMxMjUsInkiOjIwNn0seyJ4IjozNTkuODIwMzEyNSwieSI6MTQ5fSx7IngiOjQyNy4zNzIxOTAyNDEyMjgwNSwieSI6MTEyfV0=" data-look="classic" marker-end="url(#my-svg_stateDiagram-barbEnd)"/><path d="M393.968,112L372.409,118.167C350.851,124.333,307.734,136.667,332.831,151.024C357.927,165.38,451.237,181.761,497.892,189.951L544.547,198.141" id="my-svg-edge5" class="edge-thickness-normal edge-pattern-solid transition" style="fill:none;;;fill:none" data-edge="true" data-et="edge" data-id="edge5" data-points="W3sieCI6MzkzLjk2NzU4NDk3ODA3MDIsInkiOjExMn0seyJ4IjoyNjQuNjE3MTg3NSwieSI6MTQ5fSx7IngiOjU0NC41NDY4NzUsInkiOjE5OC4xNDE0MzA2NjgxNzQ0OH1d" data-look="classic" marker-end="url(#my-svg_stateDiagram-barbEnd)"/><path d="M468.273,337.312L447.781,343.926C427.288,350.541,386.302,363.771,365.809,379.885C345.316,396,345.316,415,345.316,434C345.316,453,345.316,472,345.316,491C345.316,510,345.316,529,345.316,548C345.316,567,345.316,586,345.316,605C345.316,624,345.316,643,345.316,662C345.316,681,345.316,700,386.682,717.708C428.047,735.416,510.777,751.833,552.143,760.041L593.508,768.249" id="my-svg-edge6" class="edge-thickness-normal edge-pattern-solid transition" style="fill:none;;;fill:none" data-edge="true" data-et="edge" data-id="edge6" data-points="W3sieCI6NDY4LjI3MzQzNzUsInkiOjMzNy4zMTE2OTk1MTU1NjE3N30seyJ4IjozNDUuMzE2NDA2MjUsInkiOjM3N30seyJ4IjozNDUuMzE2NDA2MjUsInkiOjQzNH0seyJ4IjozNDUuMzE2NDA2MjUsInkiOjQ5MX0seyJ4IjozNDUuMzE2NDA2MjUsInkiOjU0OH0seyJ4IjozNDUuMzE2NDA2MjUsInkiOjYwNX0seyJ4IjozNDUuMzE2NDA2MjUsInkiOjY2Mn0seyJ4IjozNDUuMzE2NDA2MjUsInkiOjcxOX0seyJ4Ijo1OTMuNTA3ODEyNSwieSI6NzY4LjI0ODc5OTkyMzg0Nzl9XQ==" data-look="classic" marker-end="url(#my-svg_stateDiagram-barbEnd)"/><path d="M521.906,340L521.906,346.167C521.906,352.333,521.906,364.667,543.022,377.7C564.138,390.733,606.37,404.467,627.486,411.334L648.602,418.2" id="my-svg-edge7" class="edge-thickness-normal edge-pattern-solid transition" style="fill:none;;;fill:none" data-edge="true" data-et="edge" data-id="edge7" data-points="W3sieCI6NTIxLjkwNjI1LCJ5IjozNDB9LHsieCI6NTIxLjkwNjI1LCJ5IjozNzd9LHsieCI6NjQ4LjYwMTU2MjUsInkiOjQxOC4yMDAyNTg1MTMxMDM5Nn1d" data-look="classic" marker-end="url(#my-svg_stateDiagram-barbEnd)"/><path d="M720.839,414L728.131,407.833C735.424,401.667,750.009,389.333,757.301,373.667C764.594,358,764.594,339,764.594,320C764.594,301,764.594,282,764.594,263C764.594,244,764.594,225,764.594,206C764.594,187,764.594,168,729.383,151.826C694.173,135.652,623.753,122.303,588.542,115.629L553.332,108.955" id="my-svg-edge8" class="edge-thickness-normal edge-pattern-solid transition" style="fill:none;;;fill:none" data-edge="true" data-et="edge" data-id="edge8" data-points="W3sieCI6NzIwLjgzODgxNTc4OTQ3MzYsInkiOjQxNH0seyJ4Ijo3NjQuNTkzNzUsInkiOjM3N30seyJ4Ijo3NjQuNTkzNzUsInkiOjMyMH0seyJ4Ijo3NjQuNTkzNzUsInkiOjI2M30seyJ4Ijo3NjQuNTkzNzUsInkiOjIwNn0seyJ4Ijo3NjQuNTkzNzUsInkiOjE0OX0seyJ4Ijo1NTMuMzMyMDMxMjUsInkiOjEwOC45NTQ2NTExNDc2ODU4fV0=" data-look="classic" marker-end="url(#my-svg_stateDiagram-barbEnd)"/><path d="M697.188,454L697.188,460.167C697.188,466.333,697.188,478.667,697.188,491C697.188,503.333,697.188,515.667,697.188,521.833L697.188,528" id="my-svg-edge9" class="edge-thickness-normal edge-pattern-solid transition" style="fill:none;;;fill:none" data-edge="true" data-et="edge" data-id="edge9" data-points="W3sieCI6Njk3LjE4NzUsInkiOjQ1NH0seyJ4Ijo2OTcuMTg3NSwieSI6NDkxfSx7IngiOjY5Ny4xODc1LCJ5Ijo1Mjh9XQ==" data-look="classic" marker-end="url(#my-svg_stateDiagram-barbEnd)"/><path d="M642.516,566.695L623.846,573.08C605.177,579.464,567.839,592.232,549.169,604.783C530.5,617.333,530.5,629.667,530.5,635.833L530.5,642" id="my-svg-edge10" class="edge-thickness-normal edge-pattern-solid transition" style="fill:none;;;fill:none" data-edge="true" data-et="edge" data-id="edge10" data-points="W3sieCI6NjQyLjUxNTYyNSwieSI6NTY2LjY5NTQ0NDMxOTQ2MDF9LHsieCI6NTMwLjUsInkiOjYwNX0seyJ4Ijo1MzAuNSwieSI6NjQyfV0=" data-look="classic" marker-end="url(#my-svg_stateDiagram-barbEnd)"/><path d="M733.809,568L745.101,574.167C756.392,580.333,778.975,592.667,790.267,608.333C801.559,624,801.559,643,801.559,662C801.559,681,801.559,700,779.904,716.804C758.25,733.608,714.941,748.216,693.287,755.52L671.633,762.824" id="my-svg-edge11" class="edge-thickness-normal edge-pattern-solid transition" style="fill:none;;;fill:none" data-edge="true" data-et="edge" data-id="edge11" data-points="W3sieCI6NzMzLjgwODkzNjQwMzUwODgsInkiOjU2OH0seyJ4Ijo4MDEuNTU4NTkzNzUsInkiOjYwNX0seyJ4Ijo4MDEuNTU4NTkzNzUsInkiOjY2Mn0seyJ4Ijo4MDEuNTU4NTkzNzUsInkiOjcxOX0seyJ4Ijo2NzEuNjMyODEyNSwieSI6NzYyLjgyNDE2MDMyOTE2NDh9XQ==" data-look="classic" marker-end="url(#my-svg_stateDiagram-barbEnd)"/><path d="M485.436,682L471.541,688.167C457.646,694.333,429.856,706.667,410.763,719C391.669,731.333,381.273,743.667,376.074,749.833L370.876,756" id="my-svg-edge12" class="edge-thickness-normal edge-pattern-solid transition" style="fill:none;;;fill:none" data-edge="true" data-et="edge" data-id="edge12" data-points="W3sieCI6NDg1LjQzNTU4MTE0MDM1MDksInkiOjY4Mn0seyJ4Ijo0MDIuMDY2NDA2MjUsInkiOjcxOX0seyJ4IjozNzAuODc1NTQ4MjQ1NjE0LCJ5Ijo3NTZ9XQ==" data-look="classic" marker-end="url(#my-svg_stateDiagram-barbEnd)"/><path d="M587.485,682L605.055,688.167C622.625,694.333,657.766,706.667,668.808,719C679.851,731.333,666.796,743.667,660.268,749.833L653.741,756" id="my-svg-edge13" class="edge-thickness-normal edge-pattern-solid transition" style="fill:none;;;fill:none" data-edge="true" data-et="edge" data-id="edge13" data-points="W3sieCI6NTg3LjQ4NDY0OTEyMjgwNywieSI6NjgyfSx7IngiOjY5Mi45MDYyNSwieSI6NzE5fSx7IngiOjY1My43NDA4MTY4ODU5NjQ5LCJ5Ijo3NTZ9XQ==" data-look="classic" marker-end="url(#my-svg_stateDiagram-barbEnd)"/><path d="M354.016,796L354.016,802.167C354.016,808.333,354.016,820.667,354.016,833C354.016,845.333,354.016,857.667,354.016,863.833L354.016,870" id="my-svg-edge14" class="edge-thickness-normal edge-pattern-solid transition" style="fill:none;;;fill:none" data-edge="true" data-et="edge" data-id="edge14" data-points="W3sieCI6MzU0LjAxNTYyNSwieSI6Nzk2fSx7IngiOjM1NC4wMTU2MjUsInkiOjgzM30seyJ4IjozNTQuMDE1NjI1LCJ5Ijo4NzB9XQ==" data-look="classic" marker-end="url(#my-svg_stateDiagram-barbEnd)"/><path d="M318.307,910L307.297,916.167C296.287,922.333,274.266,934.667,263.256,947C252.246,959.333,252.246,971.667,252.246,977.833L252.246,984" id="my-svg-edge15" class="edge-thickness-normal edge-pattern-solid transition" style="fill:none;;;fill:none" data-edge="true" data-et="edge" data-id="edge15" data-points="W3sieCI6MzE4LjMwNzAxNzU0Mzg1OTcsInkiOjkxMH0seyJ4IjoyNTIuMjQ2MDkzNzUsInkiOjk0N30seyJ4IjoyNTIuMjQ2MDkzNzUsInkiOjk4NH1d" data-look="classic" marker-end="url(#my-svg_stateDiagram-barbEnd)"/><path d="M392.028,910L403.749,916.167C415.469,922.333,438.91,934.667,450.631,950.333C462.352,966,462.352,985,462.352,1006C462.352,1027,462.352,1050,449.102,1069.667C435.853,1089.333,409.355,1105.667,396.106,1113.833L382.857,1122" id="my-svg-edge16" class="edge-thickness-normal edge-pattern-solid transition" style="fill:none;;;fill:none" data-edge="true" data-et="edge" data-id="edge16" data-points="W3sieCI6MzkyLjAyODIzNDY0OTEyMjgsInkiOjkxMH0seyJ4Ijo0NjIuMzUxNTYyNSwieSI6OTQ3fSx7IngiOjQ2Mi4zNTE1NjI1LCJ5IjoxMDA0fSx7IngiOjQ2Mi4zNTE1NjI1LCJ5IjoxMDczfSx7IngiOjM4Mi44NTY5NDA2NzAyODk5LCJ5IjoxMTIyfV0=" data-look="classic" marker-end="url(#my-svg_stateDiagram-barbEnd)"/><path d="M210.793,1023.829L193.661,1032.024C176.529,1040.219,142.264,1056.61,125.132,1072.972C108,1089.333,108,1105.667,108,1113.833L108,1122" id="my-svg-edge17" class="edge-thickness-normal edge-pattern-solid transition" style="fill:none;;;fill:none" data-edge="true" data-et="edge" data-id="edge17" data-points="W3sieCI6MjEwLjc5Mjk2ODc1LCJ5IjoxMDIzLjgyOTA2ODE2MTUwNzh9LHsieCI6MTA4LCJ5IjoxMDczfSx7IngiOjEwOCwieSI6MTEyMn1d" data-look="classic" marker-end="url(#my-svg_stateDiagram-barbEnd)"/><path d="M278.563,1024L289.309,1032.167C300.055,1040.333,321.547,1056.667,348.74,1073C375.932,1089.333,408.825,1105.667,425.272,1113.833L441.719,1122" id="my-svg-edge18" class="edge-thickness-normal edge-pattern-solid transition" style="fill:none;;;fill:none" data-edge="true" data-et="edge" data-id="edge18" data-points="W3sieCI6Mjc4LjU2Mjg5NjI4NjIzMTksInkiOjEwMjR9LHsieCI6MzQzLjAzOTA2MjUsInkiOjEwNzN9LHsieCI6NDQxLjcxODY5MzM4NzY4MTEsInkiOjExMjJ9XQ==" data-look="classic" marker-end="url(#my-svg_stateDiagram-barbEnd)"/><path d="M108,1162L108,1166.167C108,1170.333,108,1178.667,159.363,1188.049C210.726,1197.431,313.452,1207.861,364.815,1213.077L416.178,1218.292" id="my-svg-edge19" class="edge-thickness-normal edge-pattern-solid transition" style="fill:none;;;fill:none" data-edge="true" data-et="edge" data-id="edge19" data-points="W3sieCI6MTA4LCJ5IjoxMTYyfSx7IngiOjEwOCwieSI6MTE4N30seyJ4Ijo0MTYuMTc3NjM0MTE1MDA4NCwieSI6MTIxOC4yOTIxODg0MzYzNzg2fV0=" data-look="classic" marker-end="url(#my-svg_stateDiagram-barbEnd)"/><path d="M632.57,796L632.57,802.167C632.57,808.333,632.57,820.667,632.57,836.333C632.57,852,632.57,871,632.57,890C632.57,909,632.57,928,632.57,947C632.57,966,632.57,985,632.57,1006C632.57,1027,632.57,1050,632.57,1073C632.57,1096,632.57,1119,632.57,1138C632.57,1157,632.57,1172,598.821,1184.657C565.072,1197.314,497.573,1207.628,463.824,1212.785L430.075,1217.942" id="my-svg-edge20" class="edge-thickness-normal edge-pattern-solid transition" style="fill:none;;;fill:none" data-edge="true" data-et="edge" data-id="edge20" data-points="W3sieCI6NjMyLjU3MDMxMjUsInkiOjc5Nn0seyJ4Ijo2MzIuNTcwMzEyNSwieSI6ODMzfSx7IngiOjYzMi41NzAzMTI1LCJ5Ijo4OTB9LHsieCI6NjMyLjU3MDMxMjUsInkiOjk0N30seyJ4Ijo2MzIuNTcwMzEyNSwieSI6MTAwNH0seyJ4Ijo2MzIuNTcwMzEyNSwieSI6MTA3M30seyJ4Ijo2MzIuNTcwMzEyNSwieSI6MTE0Mn0seyJ4Ijo2MzIuNTcwMzEyNSwieSI6MTE4N30seyJ4Ijo0MzAuMDc0NjkyNDI3MTUyOCwieSI6MTIxNy45NDE2NTcwODQ5MjA3fV0=" data-look="classic" marker-end="url(#my-svg_stateDiagram-barbEnd)"/><path d="M481.996,1162L481.996,1166.167C481.996,1170.333,481.996,1178.667,473.214,1187.609C464.432,1196.551,446.868,1206.102,438.086,1210.877L429.304,1215.653" id="my-svg-edge21" class="edge-thickness-normal edge-pattern-solid transition" style="fill:none;;;fill:none" data-edge="true" data-et="edge" data-id="edge21" data-points="W3sieCI6NDgxLjk5NjA5Mzc1LCJ5IjoxMTYyfSx7IngiOjQ4MS45OTYwOTM3NSwieSI6MTE4N30seyJ4Ijo0MjkuMzAzODc3Mzc3NDg0OSwieSI6MTIxNS42NTI4MTM1NzYwNzk4fV0=" data-look="classic" marker-end="url(#my-svg_stateDiagram-barbEnd)"/><path d="M350.41,1162L350.41,1166.167C350.41,1170.333,350.41,1178.667,361.464,1187.696C372.518,1196.726,394.627,1206.452,405.681,1211.315L416.735,1216.179" id="my-svg-edge22" class="edge-thickness-normal edge-pattern-solid transition" style="fill:none;;;fill:none" data-edge="true" data-et="edge" data-id="edge22" data-points="W3sieCI6MzUwLjQxMDE1NjI1LCJ5IjoxMTYyfSx7IngiOjM1MC40MTAxNTYyNSwieSI6MTE4N30seyJ4Ijo0MTYuNzM0OTkxMDgzNzk1NiwieSI6MTIxNi4xNzg1MTA2NTc3NzYzfV0=" data-look="classic" marker-end="url(#my-svg_stateDiagram-barbEnd)"/></g><g class="edgeLabels"><g class="edgeLabel"><g class="label" data-id="edge0" transform="translate(0, 0)"><foreignObject width="0" height="0"><div xmlns="http://www.w3.org/1999/xhtml" class="labelBkg" style="display: table-cell; white-space: nowrap; line-height: 1.5; max-width: 200px; text-align: center;"><span class="edgeLabel"></span></div></foreignObject></g></g><g class="edgeLabel" transform="translate(763.34546, 167.63334)"><g class="label" data-id="edge1" transform="translate(-63.2734375, -12)"><foreignObject width="126.546875" height="24"><div xmlns="http://www.w3.org/1999/xhtml" class="labelBkg" style="display: table-cell; white-space: nowrap; line-height: 1.5; max-width: 200px; text-align: center;"><span class="edgeLabel"><p>applicant submits</p></span></div></foreignObject></g></g><g class="edgeLabel" transform="translate(931.140625, 605)"><g class="label" data-id="edge2" transform="translate(-72.6171875, -12)"><foreignObject width="145.234375" height="24"><div xmlns="http://www.w3.org/1999/xhtml" class="labelBkg" style="display: table-cell; white-space: nowrap; line-height: 1.5; max-width: 200px; text-align: center;"><span class="edgeLabel"><p>applicant withdraws</p></span></div></foreignObject></g></g><g class="edgeLabel" transform="translate(589.3125, 263)"><g class="label" data-id="edge3" transform="translate(-78.921875, -12)"><foreignObject width="157.84375" height="24"><div xmlns="http://www.w3.org/1999/xhtml" class="labelBkg" style="display: table-cell; white-space: nowrap; line-height: 1.5; max-width: 200px; text-align: center;"><span class="edgeLabel"><p>application registered</p></span></div></foreignObject></g></g><g class="edgeLabel" transform="translate(359.8203125, 206)"><g class="label" data-id="edge4" transform="translate(-82.3203125, -12)"><foreignObject width="164.640625" height="24"><div xmlns="http://www.w3.org/1999/xhtml" class="labelBkg" style="display: table-cell; white-space: nowrap; line-height: 1.5; max-width: 200px; text-align: center;"><span class="edgeLabel"><p>incomplete or referred</p></span></div></foreignObject></g></g><g class="edgeLabel" transform="translate(338.32611, 161.93954)"><g class="label" data-id="edge5" transform="translate(-75.203125, -12)"><foreignObject width="150.40625" height="24"><div xmlns="http://www.w3.org/1999/xhtml" class="labelBkg" style="display: table-cell; white-space: nowrap; line-height: 1.5; max-width: 200px; text-align: center;"><span class="edgeLabel"><p>information received</p></span></div></foreignObject></g></g><g class="edgeLabel" transform="translate(345.31640625, 548)"><g class="label" data-id="edge6" transform="translate(-64.6328125, -12)"><foreignObject width="129.265625" height="24"><div xmlns="http://www.w3.org/1999/xhtml" class="labelBkg" style="display: table-cell; white-space: nowrap; line-height: 1.5; max-width: 200px; text-align: center;"><span class="edgeLabel"><p>eligibility not met</p></span></div></foreignObject></g></g><g class="edgeLabel" transform="translate(521.90625, 377)"><g class="label" data-id="edge7" transform="translate(-72.375, -12)"><foreignObject width="144.75" height="24"><div xmlns="http://www.w3.org/1999/xhtml" class="labelBkg" style="display: table-cell; white-space: nowrap; line-height: 1.5; max-width: 200px; text-align: center;"><span class="edgeLabel"><p>prescreening passed</p></span></div></foreignObject></g></g><g class="edgeLabel" transform="translate(764.59375, 263)"><g class="label" data-id="edge8" transform="translate(-76.359375, -12)"><foreignObject width="152.71875" height="24"><div xmlns="http://www.w3.org/1999/xhtml" class="labelBkg" style="display: table-cell; white-space: nowrap; line-height: 1.5; max-width: 200px; text-align: center;"><span class="edgeLabel"><p>clarification required</p></span></div></foreignObject></g></g><g class="edgeLabel" transform="translate(697.1875, 491)"><g class="label" data-id="edge9" transform="translate(-76.0859375, -12)"><foreignObject width="152.171875" height="24"><div xmlns="http://www.w3.org/1999/xhtml" class="labelBkg" style="display: table-cell; white-space: nowrap; line-height: 1.5; max-width: 200px; text-align: center;"><span class="edgeLabel"><p>assessment complete</p></span></div></foreignObject></g></g><g class="edgeLabel" transform="translate(530.5, 605)"><g class="label" data-id="edge10" transform="translate(-95.453125, -12)"><foreignObject width="190.90625" height="24"><div xmlns="http://www.w3.org/1999/xhtml" class="labelBkg" style="display: table-cell; white-space: nowrap; line-height: 1.5; max-width: 200px; text-align: center;"><span class="edgeLabel"><p>recommendation prepared</p></span></div></foreignObject></g></g><g class="edgeLabel" transform="translate(801.55859375, 662)"><g class="label" data-id="edge11" transform="translate(-62.2578125, -12)"><foreignObject width="124.515625" height="24"><div xmlns="http://www.w3.org/1999/xhtml" class="labelBkg" style="display: table-cell; white-space: nowrap; line-height: 1.5; max-width: 200px; text-align: center;"><span class="edgeLabel"><p>risk not accepted</p></span></div></foreignObject></g></g><g class="edgeLabel" transform="translate(402.06640625, 719)"><g class="label" data-id="edge12" transform="translate(-33.2578125, -12)"><foreignObject width="66.515625" height="24"><div xmlns="http://www.w3.org/1999/xhtml" class="labelBkg" style="display: table-cell; white-space: nowrap; line-height: 1.5; max-width: 200px; text-align: center;"><span class="edgeLabel"><p>approved</p></span></div></foreignObject></g></g><g class="edgeLabel" transform="translate(692.90625, 719)"><g class="label" data-id="edge13" transform="translate(-30.6171875, -12)"><foreignObject width="61.234375" height="24"><div xmlns="http://www.w3.org/1999/xhtml" class="labelBkg" style="display: table-cell; white-space: nowrap; line-height: 1.5; max-width: 200px; text-align: center;"><span class="edgeLabel"><p>declined</p></span></div></foreignObject></g></g><g class="edgeLabel" transform="translate(354.015625, 833)"><g class="label" data-id="edge14" transform="translate(-37.5859375, -12)"><foreignObject width="75.171875" height="24"><div xmlns="http://www.w3.org/1999/xhtml" class="labelBkg" style="display: table-cell; white-space: nowrap; line-height: 1.5; max-width: 200px; text-align: center;"><span class="edgeLabel"><p>issue offer</p></span></div></foreignObject></g></g><g class="edgeLabel" transform="translate(252.24609375, 947)"><g class="label" data-id="edge15" transform="translate(-62.9140625, -12)"><foreignObject width="125.828125" height="24"><div xmlns="http://www.w3.org/1999/xhtml" class="labelBkg" style="display: table-cell; white-space: nowrap; line-height: 1.5; max-width: 200px; text-align: center;"><span class="edgeLabel"><p>customer accepts</p></span></div></foreignObject></g></g><g class="edgeLabel" transform="translate(462.3515625, 1004)"><g class="label" data-id="edge16" transform="translate(-69.875, -12)"><foreignObject width="139.75" height="24"><div xmlns="http://www.w3.org/1999/xhtml" class="labelBkg" style="display: table-cell; white-space: nowrap; line-height: 1.5; max-width: 200px; text-align: center;"><span class="edgeLabel"><p>declined or expired</p></span></div></foreignObject></g></g><g class="edgeLabel" transform="translate(108, 1073)"><g class="label" data-id="edge17" transform="translate(-100, -24)"><foreignObject width="200" height="48"><div xmlns="http://www.w3.org/1999/xhtml" class="labelBkg" style="display: table; white-space: break-spaces; line-height: 1.5; max-width: 200px; text-align: center; width: 200px;"><span class="edgeLabel"><p>conditions met and funds released</p></span></div></foreignObject></g></g><g class="edgeLabel" transform="translate(343.0390625, 1073)"><g class="label" data-id="edge18" transform="translate(-72.296875, -12)"><foreignObject width="144.59375" height="24"><div xmlns="http://www.w3.org/1999/xhtml" class="labelBkg" style="display: table-cell; white-space: nowrap; line-height: 1.5; max-width: 200px; text-align: center;"><span class="edgeLabel"><p>customer withdraws</p></span></div></foreignObject></g></g><g class="edgeLabel"><g class="label" data-id="edge19" transform="translate(0, 0)"><foreignObject width="0" height="0"><div xmlns="http://www.w3.org/1999/xhtml" class="labelBkg" style="display: table-cell; white-space: nowrap; line-height: 1.5; max-width: 200px; text-align: center;"><span class="edgeLabel"></span></div></foreignObject></g></g><g class="edgeLabel"><g class="label" data-id="edge20" transform="translate(0, 0)"><foreignObject width="0" height="0"><div xmlns="http://www.w3.org/1999/xhtml" class="labelBkg" style="display: table-cell; white-space: nowrap; line-height: 1.5; max-width: 200px; text-align: center;"><span class="edgeLabel"></span></div></foreignObject></g></g><g class="edgeLabel"><g class="label" data-id="edge21" transform="translate(0, 0)"><foreignObject width="0" height="0"><div xmlns="http://www.w3.org/1999/xhtml" class="labelBkg" style="display: table-cell; white-space: nowrap; line-height: 1.5; max-width: 200px; text-align: center;"><span class="edgeLabel"></span></div></foreignObject></g></g><g class="edgeLabel"><g class="label" data-id="edge22" transform="translate(0, 0)"><foreignObject width="0" height="0"><div xmlns="http://www.w3.org/1999/xhtml" class="labelBkg" style="display: table-cell; white-space: nowrap; line-height: 1.5; max-width: 200px; text-align: center;"><span class="edgeLabel"></span></div></foreignObject></g></g></g><g class="nodes"><g class="node control statediagram-state" id="my-svg-state-InformationRequested-8" data-look="classic" transform="translate(463.88671875, 92)"><rect class="basic label-container" style="fill:#FEF3C7 !important;stroke:#D97706 !important" rx="5" ry="5" x="-89.4453125" y="-20" width="178.890625" height="40"/><g class="label" style="color:#78350F !important" transform="translate(-81.4453125, -12)"><rect/><foreignObject width="162.890625" height="24"><div style="color: rgb(120, 53, 15) !important; display: table-cell; white-space: nowrap; line-height: 1.5; max-width: 200px; text-align: center;" xmlns="http://www.w3.org/1999/xhtml"><span style="color:#78350F !important" class="nodeLabel markdown-node-label"><p>Information Requested</p></span></div></foreignObject></g></g><g class="node control statediagram-state" id="my-svg-state-PendingApproval-13" data-look="classic" transform="translate(530.5, 662)"><rect class="basic label-container" style="fill:#FEF3C7 !important;stroke:#D97706 !important" rx="5" ry="5" x="-69.4296875" y="-20" width="138.859375" height="40"/><g class="label" style="color:#78350F !important" transform="translate(-61.4296875, -12)"><rect/><foreignObject width="122.859375" height="24"><div style="color: rgb(120, 53, 15) !important; display: table-cell; white-space: nowrap; line-height: 1.5; max-width: 200px; text-align: center;" xmlns="http://www.w3.org/1999/xhtml"><span style="color:#78350F !important" class="nodeLabel markdown-node-label"><p>Pending Approval</p></span></div></foreignObject></g></g><g class="node control statediagram-state" id="my-svg-state-ConditionallyApproved-14" data-look="classic" transform="translate(354.015625, 776)"><rect class="basic label-container" style="fill:#FEF3C7 !important;stroke:#D97706 !important" rx="5" ry="5" x="-90.9140625" y="-20" width="181.828125" height="40"/><g class="label" style="color:#78350F !important" transform="translate(-82.9140625, -12)"><rect/><foreignObject width="165.828125" height="24"><div style="color: rgb(120, 53, 15) !important; display: table-cell; white-space: nowrap; line-height: 1.5; max-width: 200px; text-align: center;" xmlns="http://www.w3.org/1999/xhtml"><span style="color:#78350F !important" class="nodeLabel markdown-node-label"><p>Conditionally Approved</p></span></div></foreignObject></g></g><g class="node control statediagram-state" id="my-svg-state-OfferIssued-16" data-look="classic" transform="translate(354.015625, 890)"><rect class="basic label-container" style="fill:#FEF3C7 !important;stroke:#D97706 !important" rx="5" ry="5" x="-51.0859375" y="-20" width="102.171875" height="40"/><g class="label" style="color:#78350F !important" transform="translate(-43.0859375, -12)"><rect/><foreignObject width="86.171875" height="24"><div style="color: rgb(120, 53, 15) !important; display: table-cell; white-space: nowrap; line-height: 1.5; max-width: 200px; text-align: center;" xmlns="http://www.w3.org/1999/xhtml"><span style="color:#78350F !important" class="nodeLabel markdown-node-label"><p>Offer Issued</p></span></div></foreignObject></g></g><g class="node success statediagram-state" id="my-svg-state-AccountActive-19" data-look="classic" transform="translate(108, 1142)"><rect class="basic label-container" style="fill:#DCFCE7 !important;stroke:#16A34A !important" rx="5" ry="5" x="-61.234375" y="-20" width="122.46875" height="40"/><g class="label" style="color:#14532D !important" transform="translate(-53.234375, -12)"><rect/><foreignObject width="106.46875" height="24"><div style="color: rgb(20, 83, 45) !important; display: table-cell; white-space: nowrap; line-height: 1.5; max-width: 200px; text-align: center;" xmlns="http://www.w3.org/1999/xhtml"><span style="color:#14532D !important" class="nodeLabel markdown-node-label"><p>Account Active</p></span></div></foreignObject></g></g><g class="node default" id="my-svg-state-root_start-0" data-look="classic" transform="translate(889.50390625, 15)"><circle class="state-start" r="7" width="14" height="14"/></g><g class="node active statediagram-state" id="my-svg-state-Draft-2" data-look="classic" transform="translate(889.50390625, 92)"><rect class="basic label-container" style="fill:#E8F1FB !important;stroke:#2563EB !important" rx="5" ry="5" x="-26.3515625" y="-20" width="52.703125" height="40"/><g class="label" style="color:#0F172A !important" transform="translate(-18.3515625, -12)"><rect/><foreignObject width="36.703125" height="24"><div style="color: rgb(15, 23, 42) !important; display: table-cell; white-space: nowrap; line-height: 1.5; max-width: 200px; text-align: center;" xmlns="http://www.w3.org/1999/xhtml"><span style="color:#0F172A !important" class="nodeLabel markdown-node-label"><p>Draft</p></span></div></foreignObject></g></g><g class="node active statediagram-state" id="my-svg-state-Submitted-5" data-look="classic" transform="translate(589.3125, 206)"><rect class="basic label-container" style="fill:#E8F1FB !important;stroke:#2563EB !important" rx="5" ry="5" x="-44.765625" y="-20" width="89.53125" height="40"/><g class="label" style="color:#0F172A !important" transform="translate(-36.765625, -12)"><rect/><foreignObject width="73.53125" height="24"><div style="color: rgb(15, 23, 42) !important; display: table-cell; white-space: nowrap; line-height: 1.5; max-width: 200px; text-align: center;" xmlns="http://www.w3.org/1999/xhtml"><span style="color:#0F172A !important" class="nodeLabel markdown-node-label"><p>Submitted</p></span></div></foreignObject></g></g><g class="node exception statediagram-state" id="my-svg-state-Withdrawn-21" data-look="classic" transform="translate(481.99609375, 1142)"><rect class="basic label-container" style="fill:#FEE2E2 !important;stroke:#DC2626 !important" rx="5" ry="5" x="-46.625" y="-20" width="93.25" height="40"/><g class="label" style="color:#7F1D1D !important" transform="translate(-38.625, -12)"><rect/><foreignObject width="77.25" height="24"><div style="color: rgb(127, 29, 29) !important; display: table-cell; white-space: nowrap; line-height: 1.5; max-width: 200px; text-align: center;" xmlns="http://www.w3.org/1999/xhtml"><span style="color:#7F1D1D !important" class="nodeLabel markdown-node-label"><p>Withdrawn</p></span></div></foreignObject></g></g><g class="node active statediagram-state" id="my-svg-state-Prescreening-7" data-look="classic" transform="translate(521.90625, 320)"><rect class="basic label-container" style="fill:#E8F1FB !important;stroke:#2563EB !important" rx="5" ry="5" x="-53.6328125" y="-20" width="107.265625" height="40"/><g class="label" style="color:#0F172A !important" transform="translate(-45.6328125, -12)"><rect/><foreignObject width="91.265625" height="24"><div style="color: rgb(15, 23, 42) !important; display: table-cell; white-space: nowrap; line-height: 1.5; max-width: 200px; text-align: center;" xmlns="http://www.w3.org/1999/xhtml"><span style="color:#0F172A !important" class="nodeLabel markdown-node-label"><p>Prescreening</p></span></div></foreignObject></g></g><g class="node exception statediagram-state" id="my-svg-state-Declined-20" data-look="classic" transform="translate(632.5703125, 776)"><rect class="basic label-container" style="fill:#FEE2E2 !important;stroke:#DC2626 !important" rx="5" ry="5" x="-39.0625" y="-20" width="78.125" height="40"/><g class="label" style="color:#7F1D1D !important" transform="translate(-31.0625, -12)"><rect/><foreignObject width="62.125" height="24"><div style="color: rgb(127, 29, 29) !important; display: table-cell; white-space: nowrap; line-height: 1.5; max-width: 200px; text-align: center;" xmlns="http://www.w3.org/1999/xhtml"><span style="color:#7F1D1D !important" class="nodeLabel markdown-node-label"><p>Declined</p></span></div></foreignObject></g></g><g class="node active statediagram-state" id="my-svg-state-Assessment-9" data-look="classic" transform="translate(697.1875, 434)"><rect class="basic label-container" style="fill:#E8F1FB !important;stroke:#2563EB !important" rx="5" ry="5" x="-48.5859375" y="-20" width="97.171875" height="40"/><g class="label" style="color:#0F172A !important" transform="translate(-40.5859375, -12)"><rect/><foreignObject width="81.171875" height="24"><div style="color: rgb(15, 23, 42) !important; display: table-cell; white-space: nowrap; line-height: 1.5; max-width: 200px; text-align: center;" xmlns="http://www.w3.org/1999/xhtml"><span style="color:#0F172A !important" class="nodeLabel markdown-node-label"><p>Assessment</p></span></div></foreignObject></g></g><g class="node active statediagram-state" id="my-svg-state-Underwriting-11" data-look="classic" transform="translate(697.1875, 548)"><rect class="basic label-container" style="fill:#E8F1FB !important;stroke:#2563EB !important" rx="5" ry="5" x="-54.671875" y="-20" width="109.34375" height="40"/><g class="label" style="color:#0F172A !important" transform="translate(-46.671875, -12)"><rect/><foreignObject width="93.34375" height="24"><div style="color: rgb(15, 23, 42) !important; display: table-cell; white-space: nowrap; line-height: 1.5; max-width: 200px; text-align: center;" xmlns="http://www.w3.org/1999/xhtml"><span style="color:#0F172A !important" class="nodeLabel markdown-node-label"><p>Underwriting</p></span></div></foreignObject></g></g><g class="node active statediagram-state" id="my-svg-state-Accepted-18" data-look="classic" transform="translate(252.24609375, 1004)"><rect class="basic label-container" style="fill:#E8F1FB !important;stroke:#2563EB !important" rx="5" ry="5" x="-41.453125" y="-20" width="82.90625" height="40"/><g class="label" style="color:#0F172A !important" transform="translate(-33.453125, -12)"><rect/><foreignObject width="66.90625" height="24"><div style="color: rgb(15, 23, 42) !important; display: table-cell; white-space: nowrap; line-height: 1.5; max-width: 200px; text-align: center;" xmlns="http://www.w3.org/1999/xhtml"><span style="color:#0F172A !important" class="nodeLabel markdown-node-label"><p>Accepted</p></span></div></foreignObject></g></g><g class="node exception statediagram-state" id="my-svg-state-Expired-22" data-look="classic" transform="translate(350.41015625, 1142)"><rect class="basic label-container" style="fill:#FEE2E2 !important;stroke:#DC2626 !important" rx="5" ry="5" x="-34.9609375" y="-20" width="69.921875" height="40"/><g class="label" style="color:#7F1D1D !important" transform="translate(-26.9609375, -12)"><rect/><foreignObject width="53.921875" height="24"><div style="color: rgb(127, 29, 29) !important; display: table-cell; white-space: nowrap; line-height: 1.5; max-width: 200px; text-align: center;" xmlns="http://www.w3.org/1999/xhtml"><span style="color:#7F1D1D !important" class="nodeLabel markdown-node-label"><p>Expired</p></span></div></foreignObject></g></g><g class="node default" id="my-svg-state-root_end-22" data-look="classic" transform="translate(423.1484375, 1219)"><g class="outer-path"><path d="M7 0 C7 0.40517908122283747, 6.964012880168563 0.816513743121899, 6.893654271085456 1.2155372436685123 C6.823295662002349 1.6145607442151257, 6.716427752933756 2.013397210557766, 6.5778483455013586 2.394141003279681 C6.439268938068961 2.7748847960015954, 6.26476736710249 3.149104622578984, 6.062177826491071 3.4999999999999996 C5.859588285879653 3.8508953774210153, 5.622755194947063 4.189128084166967, 5.362311101832846 4.499513267805774 C5.10186700871863 4.809898451444582, 4.809898451444583 5.10186700871863, 4.499513267805775 5.362311101832846 C4.189128084166968 5.622755194947063, 3.8508953774210166 5.859588285879652, 3.500000000000001 6.06217782649107 C3.149104622578985 6.264767367102489, 2.7748847960015963 6.439268938068961, 2.3941410032796817 6.5778483455013586 C2.013397210557767 6.716427752933756, 1.6145607442151264 6.823295662002349, 1.2155372436685128 6.893654271085456 C0.8165137431218992 6.964012880168563, 0.4051790812228379 7, 4.286263797015736e-16 7 C-0.405179081222837 7, -0.8165137431218985 6.964012880168563, -1.2155372436685121 6.893654271085456 C-1.6145607442151257 6.823295662002349, -2.0133972105577667 6.716427752933756, -2.394141003279681 6.5778483455013586 C-2.774884796001595 6.439268938068961, -3.149104622578983 6.26476736710249, -3.4999999999999982 6.062177826491071 C-3.8508953774210135 5.859588285879653, -4.189128084166966 5.6227551949470636, -4.499513267805773 5.362311101832848 C-4.809898451444581 5.101867008718632, -5.101867008718628 4.809898451444586, -5.3623111018328435 4.499513267805779 C-5.622755194947059 4.189128084166971, -5.859588285879649 3.8508953774210206, -6.062177826491068 3.5000000000000053 C-6.264767367102486 3.14910462257899, -6.439268938068958 2.774884796001602, -6.577848345501356 2.394141003279688 C-6.716427752933754 2.0133972105577738, -6.823295662002347 1.614560744215134, -6.893654271085454 1.215537243668521 C-6.9640128801685615 0.816513743121908, -6.999999999999999 0.4051790812228472, -7 1.0183126166254463e-14 C-7.000000000000001 -0.40517908122282686, -6.964012880168565 -0.8165137431218878, -6.893654271085459 -1.215537243668501 C-6.823295662002352 -1.6145607442151142, -6.716427752933759 -2.0133972105577542, -6.577848345501363 -2.394141003279669 C-6.439268938068967 -2.7748847960015834, -6.264767367102496 -3.149104622578972, -6.062177826491078 -3.4999999999999876 C-5.859588285879661 -3.8508953774210033, -5.6227551949470715 -4.1891280841669545, -5.362311101832856 -4.499513267805763 C-5.10186700871864 -4.809898451444571, -4.809898451444594 -5.10186700871862, -4.499513267805787 -5.362311101832836 C-4.189128084166979 -5.622755194947053, -3.850895377421028 -5.859588285879643, -3.5000000000000133 -6.062177826491062 C-3.1491046225789985 -6.264767367102482, -2.774884796001611 -6.439268938068954, -2.3941410032796973 -6.577848345501353 C-2.0133972105577835 -6.716427752933752, -1.6145607442151435 -6.823295662002345, -1.2155372436685306 -6.893654271085453 C-0.8165137431219176 -6.9640128801685615, -0.40517908122285695 -6.999999999999999, -1.9937625952807352e-14 -7 C0.4051790812228171 -7.000000000000001, 0.8165137431218781 -6.964012880168565, 1.2155372436684913 -6.89365427108546 C1.6145607442151044 -6.823295662002354, 2.013397210557745 -6.716427752933763, 2.3941410032796595 -6.5778483455013665 C2.774884796001574 -6.43926893806897, 3.149104622578963 -6.2647673671025, 3.499999999999979 -6.062177826491083 C3.8508953774209953 -5.859588285879665, 4.189128084166947 -5.622755194947077, 4.499513267805756 -5.362311101832862 C4.809898451444564 -5.1018670087186475, 5.101867008718613 -4.809898451444602, 5.362311101832829 -4.499513267805796 C5.622755194947046 -4.189128084166989, 5.859588285879637 -3.8508953774210393, 6.062177826491056 -3.500000000000025 C6.2647673671024755 -3.1491046225790105, 6.439268938068949 -2.774884796001623, 6.577848345501348 -2.3941410032797092 C6.716427752933747 -2.0133972105577955, 6.823295662002342 -1.6145607442151562, 6.893654271085451 -1.2155372436685434 C6.96401288016856 -0.8165137431219307, 6.982275711847575 -0.2025895406114567, 7 -3.2800750208310675e-14 C7.017724288152425 0.2025895406113911, 7.017724288152424 -0.2025895406114242, 7 0" stroke="none" stroke-width="0" fill="#E8F1FB" style=""/><path d="M7 0 C7 0.40517908122283747, 6.964012880168563 0.816513743121899, 6.893654271085456 1.2155372436685123 C6.823295662002349 1.6145607442151257, 6.716427752933756 2.013397210557766, 6.5778483455013586 2.394141003279681 C6.439268938068961 2.7748847960015954, 6.26476736710249 3.149104622578984, 6.062177826491071 3.4999999999999996 C5.859588285879653 3.8508953774210153, 5.622755194947063 4.189128084166967, 5.362311101832846 4.499513267805774 C5.10186700871863 4.809898451444582, 4.809898451444583 5.10186700871863, 4.499513267805775 5.362311101832846 C4.189128084166968 5.622755194947063, 3.8508953774210166 5.859588285879652, 3.500000000000001 6.06217782649107 C3.149104622578985 6.264767367102489, 2.7748847960015963 6.439268938068961, 2.3941410032796817 6.5778483455013586 C2.013397210557767 6.716427752933756, 1.6145607442151264 6.823295662002349, 1.2155372436685128 6.893654271085456 C0.8165137431218992 6.964012880168563, 0.4051790812228379 7, 4.286263797015736e-16 7 C-0.405179081222837 7, -0.8165137431218985 6.964012880168563, -1.2155372436685121 6.893654271085456 C-1.6145607442151257 6.823295662002349, -2.0133972105577667 6.716427752933756, -2.394141003279681 6.5778483455013586 C-2.774884796001595 6.439268938068961, -3.149104622578983 6.26476736710249, -3.4999999999999982 6.062177826491071 C-3.8508953774210135 5.859588285879653, -4.189128084166966 5.6227551949470636, -4.499513267805773 5.362311101832848 C-4.809898451444581 5.101867008718632, -5.101867008718628 4.809898451444586, -5.3623111018328435 4.499513267805779 C-5.622755194947059 4.189128084166971, -5.859588285879649 3.8508953774210206, -6.062177826491068 3.5000000000000053 C-6.264767367102486 3.14910462257899, -6.439268938068958 2.774884796001602, -6.577848345501356 2.394141003279688 C-6.716427752933754 2.0133972105577738, -6.823295662002347 1.614560744215134, -6.893654271085454 1.215537243668521 C-6.9640128801685615 0.816513743121908, -6.999999999999999 0.4051790812228472, -7 1.0183126166254463e-14 C-7.000000000000001 -0.40517908122282686, -6.964012880168565 -0.8165137431218878, -6.893654271085459 -1.215537243668501 C-6.823295662002352 -1.6145607442151142, -6.716427752933759 -2.0133972105577542, -6.577848345501363 -2.394141003279669 C-6.439268938068967 -2.7748847960015834, -6.264767367102496 -3.149104622578972, -6.062177826491078 -3.4999999999999876 C-5.859588285879661 -3.8508953774210033, -5.6227551949470715 -4.1891280841669545, -5.362311101832856 -4.499513267805763 C-5.10186700871864 -4.809898451444571, -4.809898451444594 -5.10186700871862, -4.499513267805787 -5.362311101832836 C-4.189128084166979 -5.622755194947053, -3.850895377421028 -5.859588285879643, -3.5000000000000133 -6.062177826491062 C-3.1491046225789985 -6.264767367102482, -2.774884796001611 -6.439268938068954, -2.3941410032796973 -6.577848345501353 C-2.0133972105577835 -6.716427752933752, -1.6145607442151435 -6.823295662002345, -1.2155372436685306 -6.893654271085453 C-0.8165137431219176 -6.9640128801685615, -0.40517908122285695 -6.999999999999999, -1.9937625952807352e-14 -7 C0.4051790812228171 -7.000000000000001, 0.8165137431218781 -6.964012880168565, 1.2155372436684913 -6.89365427108546 C1.6145607442151044 -6.823295662002354, 2.013397210557745 -6.716427752933763, 2.3941410032796595 -6.5778483455013665 C2.774884796001574 -6.43926893806897, 3.149104622578963 -6.2647673671025, 3.499999999999979 -6.062177826491083 C3.8508953774209953 -5.859588285879665, 4.189128084166947 -5.622755194947077, 4.499513267805756 -5.362311101832862 C4.809898451444564 -5.1018670087186475, 5.101867008718613 -4.809898451444602, 5.362311101832829 -4.499513267805796 C5.622755194947046 -4.189128084166989, 5.859588285879637 -3.8508953774210393, 6.062177826491056 -3.500000000000025 C6.2647673671024755 -3.1491046225790105, 6.439268938068949 -2.774884796001623, 6.577848345501348 -2.3941410032797092 C6.716427752933747 -2.0133972105577955, 6.823295662002342 -1.6145607442151562, 6.893654271085451 -1.2155372436685434 C6.96401288016856 -0.8165137431219307, 6.982275711847575 -0.2025895406114567, 7 -3.2800750208310675e-14 C7.017724288152425 0.2025895406113911, 7.017724288152424 -0.2025895406114242, 7 0" stroke="#475569" stroke-width="2" fill="none" stroke-dasharray="0 0" style=""/><g><path d="M2.5 0 C2.5 0.14470681472244193, 2.487147457203058 0.29161205111496386, 2.46201938253052 0.4341204441673258 C2.436891307857982 0.5766288372196877, 2.3987241974763416 0.7190704323420595, 2.3492315519647713 0.8550503583141718 C2.299738906453201 0.991030284286284, 2.2374169168223177 1.124680222349637, 2.165063509461097 1.2499999999999998 C2.092710102099876 1.3753197776503625, 2.0081268553382365 1.496117172916774, 1.915111107797445 1.6069690242163481 C1.8220953602566536 1.7178208755159223, 1.7178208755159226 1.8220953602566536, 1.6069690242163484 1.915111107797445 C1.4961171729167742 2.0081268553382365, 1.375319777650363 2.0927101020998755, 1.2500000000000002 2.1650635094610964 C1.1246802223496375 2.2374169168223172, 0.9910302842862845 2.2997389064532, 0.8550503583141721 2.349231551964771 C0.7190704323420597 2.3987241974763416, 0.576628837219688 2.436891307857982, 0.43412044416732604 2.46201938253052 C0.291612051114964 2.487147457203058, 0.14470681472244212 2.5, 1.5308084989341916e-16 2.5 C-0.1447068147224418 2.5, -0.2916120511149638 2.487147457203058, -0.43412044416732576 2.46201938253052 C-0.5766288372196877 2.436891307857982, -0.7190704323420595 2.3987241974763416, -0.8550503583141718 2.3492315519647713 C-0.991030284286284 2.299738906453201, -1.124680222349637 2.2374169168223177, -1.2499999999999996 2.165063509461097 C-1.375319777650362 2.092710102099876, -1.4961171729167733 2.008126855338237, -1.6069690242163475 1.9151111077974459 C-1.7178208755159217 1.8220953602566548, -1.822095360256653 1.7178208755159234, -1.9151111077974443 1.6069690242163495 C-2.0081268553382357 1.4961171729167755, -2.0927101020998746 1.3753197776503645, -2.1650635094610955 1.250000000000002 C-2.2374169168223164 1.1246802223496395, -2.2997389064531992 0.9910302842862865, -2.34923155196477 0.8550503583141743 C-2.3987241974763407 0.7190704323420621, -2.436891307857981 0.5766288372196907, -2.4620193825305194 0.434120444167329 C-2.487147457203058 0.29161205111496724, -2.5 0.14470681472244545, -2.5 3.636830773662308e-15 C-2.5 -0.14470681472243818, -2.4871474572030587 -0.2916120511149599, -2.4620193825305208 -0.4341204441673218 C-2.436891307857983 -0.5766288372196837, -2.398724197476343 -0.7190704323420553, -2.3492315519647726 -0.8550503583141675 C-2.2997389064532023 -0.9910302842862798, -2.23741691682232 -1.1246802223496328, -2.165063509461099 -1.2499999999999956 C-2.092710102099878 -1.3753197776503583, -2.00812685533824 -1.4961171729167695, -1.9151111077974488 -1.606969024216344 C-1.8220953602566576 -1.7178208755159183, -1.7178208755159263 -1.82209536025665, -1.6069690242163523 -1.9151111077974416 C-1.4961171729167784 -2.0081268553382334, -1.3753197776503672 -2.0927101020998724, -1.2500000000000047 -2.1650635094610937 C-1.1246802223496422 -2.237416916822315, -0.9910302842862897 -2.299738906453198, -0.8550503583141776 -2.3492315519647686 C-0.7190704323420656 -2.3987241974763394, -0.5766288372196942 -2.4368913078579806, -0.43412044416733236 -2.462019382530519 C-0.29161205111497057 -2.4871474572030574, -0.1447068147224489 -2.4999999999999996, -7.120580697431198e-15 -2.5 C0.14470681472243463 -2.5000000000000004, 0.29161205111495647 -2.487147457203059, 0.4341204441673183 -2.4620193825305217 C0.5766288372196802 -2.436891307857984, 0.7190704323420518 -2.3987241974763442, 0.8550503583141642 -2.349231551964774 C0.9910302842862766 -2.2997389064532037, 1.1246802223496295 -2.2374169168223212, 1.2499999999999925 -2.165063509461101 C1.3753197776503554 -2.0927101020998804, 1.4961171729167668 -2.008126855338242, 1.6069690242163412 -1.915111107797451 C1.7178208755159157 -1.82209536025666, 1.8220953602566472 -1.7178208755159294, 1.915111107797439 -1.6069690242163557 C2.0081268553382308 -1.496117172916782, 2.09271010209987 -1.3753197776503712, 2.1650635094610915 -1.2500000000000089 C2.237416916822313 -1.1246802223496466, 2.299738906453196 -0.9910302842862939, 2.3492315519647673 -0.855050358314182 C2.3987241974763385 -0.71907043234207, 2.4368913078579792 -0.5766288372196986, 2.462019382530518 -0.4341204441673369 C2.487147457203057 -0.29161205111497523, 2.4936698970884197 -0.07235340736123454, 2.5 -1.1714553645825241e-14 C2.5063301029115803 0.07235340736121111, 2.50633010291158 -0.07235340736122292, 2.5 0" stroke="none" stroke-width="0" fill="#2563EB" style=""/><path d="M2.5 0 C2.5 0.14470681472244193, 2.487147457203058 0.29161205111496386, 2.46201938253052 0.4341204441673258 C2.436891307857982 0.5766288372196877, 2.3987241974763416 0.7190704323420595, 2.3492315519647713 0.8550503583141718 C2.299738906453201 0.991030284286284, 2.2374169168223177 1.124680222349637, 2.165063509461097 1.2499999999999998 C2.092710102099876 1.3753197776503625, 2.0081268553382365 1.496117172916774, 1.915111107797445 1.6069690242163481 C1.8220953602566536 1.7178208755159223, 1.7178208755159226 1.8220953602566536, 1.6069690242163484 1.915111107797445 C1.4961171729167742 2.0081268553382365, 1.375319777650363 2.0927101020998755, 1.2500000000000002 2.1650635094610964 C1.1246802223496375 2.2374169168223172, 0.9910302842862845 2.2997389064532, 0.8550503583141721 2.349231551964771 C0.7190704323420597 2.3987241974763416, 0.576628837219688 2.436891307857982, 0.43412044416732604 2.46201938253052 C0.291612051114964 2.487147457203058, 0.14470681472244212 2.5, 1.5308084989341916e-16 2.5 C-0.1447068147224418 2.5, -0.2916120511149638 2.487147457203058, -0.43412044416732576 2.46201938253052 C-0.5766288372196877 2.436891307857982, -0.7190704323420595 2.3987241974763416, -0.8550503583141718 2.3492315519647713 C-0.991030284286284 2.299738906453201, -1.124680222349637 2.2374169168223177, -1.2499999999999996 2.165063509461097 C-1.375319777650362 2.092710102099876, -1.4961171729167733 2.008126855338237, -1.6069690242163475 1.9151111077974459 C-1.7178208755159217 1.8220953602566548, -1.822095360256653 1.7178208755159234, -1.9151111077974443 1.6069690242163495 C-2.0081268553382357 1.4961171729167755, -2.0927101020998746 1.3753197776503645, -2.1650635094610955 1.250000000000002 C-2.2374169168223164 1.1246802223496395, -2.2997389064531992 0.9910302842862865, -2.34923155196477 0.8550503583141743 C-2.3987241974763407 0.7190704323420621, -2.436891307857981 0.5766288372196907, -2.4620193825305194 0.434120444167329 C-2.487147457203058 0.29161205111496724, -2.5 0.14470681472244545, -2.5 3.636830773662308e-15 C-2.5 -0.14470681472243818, -2.4871474572030587 -0.2916120511149599, -2.4620193825305208 -0.4341204441673218 C-2.436891307857983 -0.5766288372196837, -2.398724197476343 -0.7190704323420553, -2.3492315519647726 -0.8550503583141675 C-2.2997389064532023 -0.9910302842862798, -2.23741691682232 -1.1246802223496328, -2.165063509461099 -1.2499999999999956 C-2.092710102099878 -1.3753197776503583, -2.00812685533824 -1.4961171729167695, -1.9151111077974488 -1.606969024216344 C-1.8220953602566576 -1.7178208755159183, -1.7178208755159263 -1.82209536025665, -1.6069690242163523 -1.9151111077974416 C-1.4961171729167784 -2.0081268553382334, -1.3753197776503672 -2.0927101020998724, -1.2500000000000047 -2.1650635094610937 C-1.1246802223496422 -2.237416916822315, -0.9910302842862897 -2.299738906453198, -0.8550503583141776 -2.3492315519647686 C-0.7190704323420656 -2.3987241974763394, -0.5766288372196942 -2.4368913078579806, -0.43412044416733236 -2.462019382530519 C-0.29161205111497057 -2.4871474572030574, -0.1447068147224489 -2.4999999999999996, -7.120580697431198e-15 -2.5 C0.14470681472243463 -2.5000000000000004, 0.29161205111495647 -2.487147457203059, 0.4341204441673183 -2.4620193825305217 C0.5766288372196802 -2.436891307857984, 0.7190704323420518 -2.3987241974763442, 0.8550503583141642 -2.349231551964774 C0.9910302842862766 -2.2997389064532037, 1.1246802223496295 -2.2374169168223212, 1.2499999999999925 -2.165063509461101 C1.3753197776503554 -2.0927101020998804, 1.4961171729167668 -2.008126855338242, 1.6069690242163412 -1.915111107797451 C1.7178208755159157 -1.82209536025666, 1.8220953602566472 -1.7178208755159294, 1.915111107797439 -1.6069690242163557 C2.0081268553382308 -1.496117172916782, 2.09271010209987 -1.3753197776503712, 2.1650635094610915 -1.2500000000000089 C2.237416916822313 -1.1246802223496466, 2.299738906453196 -0.9910302842862939, 2.3492315519647673 -0.855050358314182 C2.3987241974763385 -0.71907043234207, 2.4368913078579792 -0.5766288372196986, 2.462019382530518 -0.4341204441673369 C2.487147457203057 -0.29161205111497523, 2.4936698970884197 -0.07235340736123454, 2.5 -1.1714553645825241e-14 C2.5063301029115803 0.07235340736121111, 2.50633010291158 -0.07235340736122292, 2.5 0" stroke="#2563EB" stroke-width="2" fill="none" stroke-dasharray="0 0" style=""/></g></g></g></g></g></g><defs><filter id="my-svg-drop-shadow" height="130%" width="130%"><feDropShadow dx="4" dy="4" stdDeviation="0" flood-opacity="0.06" flood-color="#000000"/></filter></defs><defs><filter id="my-svg-drop-shadow-small" height="150%" width="150%"><feDropShadow dx="2" dy="2" stdDeviation="0" flood-opacity="0.06" flood-color="#000000"/></filter></defs><linearGradient id="my-svg-gradient" gradientUnits="objectBoundingBox" x1="0%" y1="0%" x2="100%" y2="0%"><stop offset="0%" stop-color="#2563EB" stop-opacity="1"/><stop offset="100%" stop-color="hsl(210, 0%, 88.0392156863%)" stop-opacity="1"/></linearGradient></svg>